<svg xmlns="http://www.w3.org/2000/svg" width="960" height="285" viewBox="0 0 960 285">
<rect width="960" height="285" rx="18" fill="#0c1020"/>
<g font-family="monospace">
<text x="30" y="34" fill="#67e8f9" font-size="12">PUBLIC SIGNAL / GITHUB API</text>
<rect x="30" y="54" width="288" height="108" rx="12" fill="#151e33" stroke="#2c3554"/>
<text x="50" y="108" fill="#67e8f9" font-size="38">10</text>
<text x="50" y="139" fill="#95a5c8" font-size="11">ORIGINAL PUBLIC REPOS</text>
<rect x="342" y="54" width="288" height="108" rx="12" fill="#151e33" stroke="#2c3554"/>
<text x="362" y="108" fill="#c4b5fd" font-size="38">14</text>
<text x="362" y="139" fill="#95a5c8" font-size="11">STARS / ORIGINAL REPOS</text>
<rect x="654" y="54" width="288" height="108" rx="12" fill="#151e33" stroke="#2c3554"/>
<text x="674" y="108" fill="#f0abfc" font-size="38">5</text>
<text x="674" y="139" fill="#95a5c8" font-size="11">FOLLOWERS</text>
<text x="30" y="191" fill="#95a5c8" font-size="11">PRIMARY LANGUAGE / REPOSITORY COUNT (NOT CODE VOLUME)</text>
<rect x="30.00" y="204" width="400.00" height="9" fill="#67e8f9"/>
<rect x="430.00" y="204" width="200.00" height="9" fill="#a78bfa"/>
<rect x="630.00" y="204" width="100.00" height="9" fill="#f0abfc"/>
<rect x="730.00" y="204" width="100.00" height="9" fill="#fbbf24"/>
<rect x="830.00" y="204" width="100.00" height="9" fill="#34d399"/>
<text x="30" y="238" fill="#95a5c8" font-size="12">Python: 4  /  JavaScript: 2  /  TypeScript: 1  /  Kotlin: 1  /  Java: 1</text>
<text x="30" y="266" fill="#637493" font-size="10">UPDATED 2026-09-25 05:07 UTC  ·  PUBLIC DATA ONLY</text>
</g></svg>